# xmcd
#
# Track frame offsets: 
#        150
#        13477
#        28066
#        40163
#        52143
#        66048
#        80097
#        91317
#        105580
#        116379
#        129374
#        141246
#        155681
#        170840
#        185302
#        193551
#        206638
#        220254
#        233380
#        248653
#
# Disc length: 3512 seconds
#
# Revision: 2
# Processed by: cddbd v1.5.2PL0 Copyright (c) Steve Scherf et al.
# Submitted via: ExactAudioCopy v1.0b3
#
DISCID=1b0db614
DTITLE=Waller, Fats - The Centenary Collection [Disc 3]
DYEAR=0
DGENRE=Jazz
TTITLE0=Swing Low Sweet Chariot
TTITLE1=Sugar Rose
TTITLE2=(You Know It All) Smarty
TTITLE3=She's Tall, She's Tan, She's Terrific
TTITLE4=All God's Chillun Got Wings
TTITLE5=Rockin' Chair
TTITLE6=How Ya, Baby?
TTITLE7=Stop Pretending
TTITLE8=You've Been Reading My Mail
TTITLE9=Deep River
TTITLE10=Where Is The Sun?
TTITLE11=Ring Dem Bells
TTITLE12=I'm Always In The Mood For You
TTITLE13=Am I In Another World?
TTITLE14=Piccadilly
TTITLE15=Chelsea
TTITLE16=Soho
TTITLE17=Bond Street
TTITLE18=Limehouse
TTITLE19=Whitechapel
EXTD=
EXTT0=
EXTT1=
EXTT2=
EXTT3=
EXTT4=
EXTT5=
EXTT6=
EXTT7=
EXTT8=
EXTT9=
EXTT10=
EXTT11=
EXTT12=
EXTT13=
EXTT14=
EXTT15=
EXTT16=
EXTT17=
EXTT18=
EXTT19=
PLAYORDER=
